HIERARCHY
ROOT SpineBase
{
  OFFSET 0.000000 0.000000 0.000000
  CHANNELS 6 Xposition Yposition Zposition Zrotation Xrotation Yrotation
  JOINT SpineMid
  {
    OFFSET 0.000000 32.171728 0.000000
    CHANNELS 3 Zrotation Xrotation Yrotation
    JOINT SpineShoulder
    {
      OFFSET 0.014454 23.915315 -0.816696
      CHANNELS 3 Zrotation Xrotation Yrotation
      JOINT Neck
      {
        OFFSET 0.053374 7.916205 -0.590688
        CHANNELS 3 Zrotation Xrotation Yrotation
        JOINT Head
        {
          OFFSET -5.103842 14.293149 -0.404597
          CHANNELS 3 Zrotation Xrotation Yrotation
          End Site
          {
            OFFSET 0 0 0
          }
        }
      }
      JOINT ShoulderLeft
      {
        OFFSET -17.196391 -6.585158 6.211330
        CHANNELS 3 Zrotation Xrotation Yrotation
        JOINT ElbowLeft
        {
          OFFSET -3.270529 -31.214020 7.145824
          CHANNELS 3 Zrotation Xrotation Yrotation
          JOINT WristLeft
          {
            OFFSET -2.575767 -23.225967 -1.027584
            CHANNELS 3 Zrotation Xrotation Yrotation
            JOINT HandLeft
            {
              OFFSET -0.176028 -4.536133 0.592727
              CHANNELS 3 Zrotation Xrotation Yrotation
              JOINT HandTipLeft
              {
                OFFSET 0.440283 -6.135295 0.429132
                CHANNELS 3 Zrotation Xrotation Yrotation
                End Site
                {
                  OFFSET 0 0 0
                }
              }
              JOINT ThumbLeft
              {
                OFFSET 2.642543 -3.120660 1.566532
                CHANNELS 3 Zrotation Xrotation Yrotation
                End Site
                {
                  OFFSET 0 0 0
                }
              }
            }
          }
        }
      }
      JOINT ShoulderRight
      {
        OFFSET 14.484582 -3.489471 -8.698410
        CHANNELS 3 Zrotation Xrotation Yrotation
        JOINT ElbowRight
        {
          OFFSET 8.093665 -26.468408 -2.290183
          CHANNELS 3 Zrotation Xrotation Yrotation
          JOINT WristRight
          {
            OFFSET 0.261000 -23.047254 -6.003731
            CHANNELS 3 Zrotation Xrotation Yrotation
            JOINT HandRight
            {
              OFFSET -0.732970 -6.824680 -2.116248
              CHANNELS 3 Zrotation Xrotation Yrotation
              JOINT HandTipRight
              {
                OFFSET -0.105517 -6.230280 -1.887231
                CHANNELS 3 Zrotation Xrotation Yrotation
                End Site
                {
                  OFFSET 0 0 0
                }
              }
              JOINT ThumbRight
              {
                OFFSET 2.769578 -0.623883 -1.636176
                CHANNELS 3 Zrotation Xrotation Yrotation
                End Site
                {
                  OFFSET 0 0 0
                }
              }
            }
          }
        }
      }
    }
  }
  JOINT HipLeft
  {
    OFFSET -6.833937 0.051508 -1.016780
    CHANNELS 3 Zrotation Xrotation Yrotation
    JOINT KneeLeft
    {
      OFFSET 2.433110 -33.342639 4.856032
      CHANNELS 3 Zrotation Xrotation Yrotation
      JOINT AnkleLeft
      {
        OFFSET 5.655432 -37.642450 7.345084
        CHANNELS 3 Zrotation Xrotation Yrotation
        JOINT FootLeft
        {
          OFFSET -2.261481 -6.459588 -8.971174
          CHANNELS 3 Zrotation Xrotation Yrotation
          End Site
          {
            OFFSET 0 0 0
          }
        }
      }
    }
  }
  JOINT HipRight
  {
    OFFSET 7.711081 1.866299 -6.355397
    CHANNELS 3 Zrotation Xrotation Yrotation
    JOINT KneeRight
    {
      OFFSET 7.143091 -32.028422 0.965695
      CHANNELS 3 Zrotation Xrotation Yrotation
      JOINT AnkleRight
      {
        OFFSET 2.538523 -38.685685 8.258976
        CHANNELS 3 Zrotation Xrotation Yrotation
        JOINT FootRight
        {
          OFFSET -1.974002 -6.872602 -7.959727
          CHANNELS 3 Zrotation Xrotation Yrotation
          End Site
          {
            OFFSET 0 0 0
          }
        }
      }
    }
  }
}
MOTION
Frames: 8
Frame Time: 0.033333
-40.148496 79.237303 332.013594 -0.000000 0.000000 20.155205 0.000000 0.000000 -20.155205 -0.000000 0.000000 0.000000 -0.000000 0.000000 0.000000 0.000000 0.000000 0.000000 -0.000000 0.000000 0.000000 -0.000000 0.000000 0.000000 -0.000000 0.000000 0.000000 -0.000000 0.000000 0.000000 0.000000 0.000000 0.000000 0.000000 0.000000 0.000000 -0.000000 0.000000 0.000000 -0.000000 0.000000 0.000000 -0.000000 0.000000 0.000000 -0.000000 0.000000 0.000000 0.000000 0.000000 0.000000 0.000000 0.000000 0.000000 0.000000 0.000000 -20.155205 -0.000000 0.000000 0.000000 -0.000000 0.000000 0.000000 0.000000 0.000000 0.000000 0.000000 0.000000 -20.155205 -0.000000 0.000000 0.000000 -0.000000 0.000000 0.000000 0.000000 0.000000 0.000000
-40.497092 79.216432 332.219650 -0.193136 -0.028591 20.311969 0.191051 -0.040231 -20.311950 -0.000000 0.000000 0.000000 -0.000000 0.000000 0.000000 0.000000 0.000000 0.000000 0.703575 0.939057 0.057055 1.362181 2.121011 -0.521246 -3.033517 5.119318 -0.051381 1.059014 -4.960005 0.761801 0.000000 0.000000 0.000000 0.000000 0.000000 0.000000 -0.787635 0.248685 0.146185 -0.318298 0.210957 0.150023 -3.232894 0.429442 0.955196 2.878594 -0.666678 -0.795266 0.000000 0.000000 0.000000 0.000000 0.000000 0.000000 0.191051 -0.040231 -20.311950 -0.000000 0.000000 0.000000 -0.000000 0.000000 0.000000 0.000000 0.000000 0.000000 0.191051 -0.040231 -20.311950 -0.000000 0.000000 0.000000 1.920440 -6.785717 -0.171863 0.000000 0.000000 0.000000
-40.803727 79.200824 332.401532 -0.364462 -0.047512 20.459325 0.358079 -0.082880 -20.459217 -0.000000 0.000000 0.000000 -0.000000 0.000000 0.000000 0.000000 0.000000 0.000000 1.343754 1.870632 0.090131 2.504138 3.909487 -1.016382 -5.228842 9.545455 -0.115267 1.710334 -9.403547 1.478220 0.000000 0.000000 0.000000 0.000000 0.000000 0.000000 -1.483800 0.471472 0.279676 -0.631208 0.392230 0.291286 -6.072905 0.579766 1.804291 5.360119 -1.342426 -1.483637 0.000000 0.000000 0.000000 0.000000 0.000000 0.000000 0.358079 -0.082880 -20.459217 -0.000000 0.000000 0.000000 0.255738 1.225119 -0.775906 0.000000 0.000000 0.000000 1.699931 0.180259 -20.266030 -1.167710 -0.711568 -0.201579 3.275088 -11.712219 -0.094321 0.000000 0.000000 0.000000
-41.068403 79.190480 332.559241 -0.514050 -0.056782 20.596641 0.501167 -0.127684 -20.596337 -0.000000 0.000000 0.000000 -0.000000 0.000000 0.000000 0.000000 0.000000 0.000000 1.913176 2.788825 0.099917 3.423902 5.374408 -1.461064 -6.570644 13.077988 -0.177110 1.929435 -13.050398 2.050912 0.000000 0.000000 0.000000 0.000000 0.000000 0.000000 -2.089275 0.669240 0.399670 -0.940447 0.545182 0.423387 -8.455331 0.459509 2.510562 7.391934 -2.001633 -2.074362 0.000000 0.000000 0.000000 0.000000 0.000000 0.000000 1.395936 -0.102084 -20.449163 -0.829441 -0.336597 -0.147816 -0.002422 2.522869 -0.853840 0.000000 0.000000 0.000000 2.336347 0.206647 -20.336301 -1.604771 -0.951103 -0.274621 3.981636 -14.479630 0.087701 0.000000 0.000000 0.000000
-41.291120 79.185399 332.692775 -0.641964 -0.056413 20.723341 0.620392 -0.174398 -20.722713 -0.000000 0.000000 0.000000 -0.000000 0.000000 0.000000 0.000000 0.000000 0.000000 2.404522 3.687622 0.087454 4.125742 6.533942 -1.837544 -7.100358 15.689106 -0.220801 1.722460 -15.817680 2.417359 0.000000 0.000000 0.000000 0.000000 0.000000 0.000000 -2.604684 0.842773 0.505471 -1.247724 0.671037 0.546068 -10.349634 0.086112 3.053602 8.953267 -2.629657 -2.579724 0.000000 0.000000 0.000000 0.000000 0.000000 0.000000 1.758755 -0.109594 -20.534358 -1.043311 -0.459987 -0.189722 -0.510937 4.236027 -0.717229 0.000000 0.000000 0.000000 2.818302 0.189157 -20.416636 -1.933277 -1.107189 -0.325042 3.989747 -14.994087 0.279383 0.000000 0.000000 0.000000
-41.471876 79.185582 332.802136 -0.748256 -0.046414 20.838918 0.715823 -0.222805 -20.837829 -0.000000 0.000000 0.000000 -0.000000 0.000000 0.000000 0.000000 0.000000 0.000000 2.810605 4.560969 0.054104 4.618062 7.410686 -2.134192 -6.883830 17.447384 -0.222798 1.115612 -17.732972 2.551294 0.000000 0.000000 0.000000 0.000000 0.000000 0.000000 -3.030447 0.992738 0.596476 -1.554715 0.770852 0.659187 -11.749890 -0.520979 3.426966 10.045120 -3.219767 -3.010694 0.000000 0.000000 0.000000 0.000000 0.000000 0.000000 2.072612 -0.103108 -20.612106 -0.514179 -0.245241 -0.031896 -1.953485 5.973031 -0.562722 0.000000 0.000000 0.000000 3.139916 0.127808 -20.507111 -2.147950 -1.177325 -0.350780 3.286215 -13.251673 0.464356 0.000000 0.000000 0.000000
-41.599159 79.185707 332.903272 -0.831842 -0.049180 20.917088 0.040022 0.145454 -20.945365 0.846438 -0.100549 0.029709 -0.000000 0.000000 0.000000 0.000000 0.000000 0.000000 3.052660 5.475483 -0.021438 4.947083 8.415846 -2.389835 -4.888439 18.230077 -0.018639 0.165503 -18.937302 2.600767 0.000000 0.000000 0.000000 0.000000 0.000000 0.000000 -3.332399 1.183483 0.690265 -1.972946 0.719612 0.757448 -11.706958 -2.537668 3.339725 10.924173 -3.786799 -3.662158 0.000000 0.000000 0.000000 0.000000 0.000000 0.000000 2.356529 -0.016704 -20.655038 -0.607180 -0.551972 -0.073793 -3.909412 8.469887 1.233232 0.000000 0.000000 0.000000 3.315902 0.062385 -20.579198 -2.250549 -1.179401 -0.355522 2.810892 -12.179766 0.638808 0.000000 0.000000 0.000000
-41.691700 79.194117 332.973902 -0.901258 -0.032801 20.973196 0.044196 0.172417 -21.003689 0.107184 -0.040120 -0.030068 0.814652 -0.102961 0.062213 0.000000 0.000000 0.000000 4.049370 6.239670 -0.035274 4.797937 8.776368 -2.479491 -1.624048 19.370998 0.287889 -2.757066 -20.105745 1.654773 0.000000 0.000000 0.000000 0.000000 0.000000 0.000000 -2.703437 1.215352 0.811339 -2.368346 0.702839 0.845809 -11.709103 -3.636297 3.279626 10.591624 -2.931393 -3.727226 0.000000 0.000000 0.000000 0.000000 0.000000 0.000000 2.626015 0.028902 -20.674613 -1.545386 -0.925986 -0.305087 -4.712640 13.230848 2.077885 0.000000 0.000000 0.000000 3.239713 -0.135760 -20.674999 -2.177715 -0.988602 -0.306163 0.521548 -5.407957 1.032870 0.000000 0.000000 0.000000
